<svg width="159" height="31" viewBox="0 0 159 31" fill="none" xmlns="http://www.w3.org/2000/svg">
<g clip-path="url(#clip0_12_91)">
<path d="M0 10.1288H3.64385L9.80655 26.8252L16.0072 10.1288H19.6511L11.7351 30.3864H7.87505L0 10.1288Z" fill="white"/>
<path d="M29.5395 30.3864V10.1288H32.0174L32.5609 11.6466C34.7642 10.2257 36.9441 9.5152 39.0947 9.5152C41.3185 9.5152 43.1185 10.0495 44.5006 11.1182C45.8798 12.1869 46.5695 13.8163 46.5695 16.0035V30.3864H43.1448V15.9712C43.1448 13.7253 41.7948 12.6008 39.0977 12.6008C37.0025 12.6008 34.9571 13.3025 32.9671 14.7029V30.3864H29.5395Z" fill="white"/>
<path d="M57.0919 20.2165C57.0919 16.9606 57.951 14.3623 59.6721 12.4247C61.3903 10.487 63.6637 9.5152 66.4835 9.5152C72.1027 9.5152 74.9109 13.4992 74.9109 21.4642H60.5166C60.6481 23.1406 61.2588 24.6321 62.3488 25.9444C63.4387 27.2567 65.0985 27.9114 67.3309 27.9114C69.917 27.9114 72.1349 27.4828 73.9875 26.6255V29.811C71.9654 30.589 69.8907 30.9853 67.7663 30.9971C65.9166 30.9971 64.2978 30.7093 62.9127 30.131C61.5277 29.5526 60.4173 28.757 59.5786 27.747C58.74 26.7342 58.1176 25.598 57.7085 24.3355C57.2965 23.076 57.0919 21.7021 57.0919 20.2165ZM60.6335 18.8719H71.5212C71.3371 17.0428 70.8375 15.5396 70.0251 14.3653C69.2098 13.1909 68.0293 12.6008 66.4806 12.6008C64.9436 12.6008 63.6374 13.1762 62.5621 14.3242C61.4868 15.475 60.8439 16.99 60.6335 18.8719Z" fill="white"/>
<path d="M84.4194 27.7558L86.5846 25.4424C87.0989 25.8504 87.7652 26.2732 88.5834 26.7077C90.1554 27.5122 91.4996 27.9144 92.6217 27.9144C93.6181 27.9144 94.6 27.6384 95.5672 27.0835C96.5344 26.5286 97.0194 25.7506 97.0194 24.7495C97.0194 23.8276 96.5548 23.0731 95.6256 22.4859C94.6964 21.8987 93.1301 21.1971 90.9298 20.378C90.0123 20.0491 89.2963 19.779 88.7821 19.5677C88.2678 19.3563 87.6775 19.0392 87.0084 18.6194C86.3392 18.1966 85.8454 17.7034 85.5268 17.1367C85.2054 16.5701 85.0476 15.9242 85.0476 15.1991C85.0476 13.4992 85.8366 12.1252 87.4116 11.0829C88.9866 10.0407 90.7632 9.52106 92.7357 9.52106C94.2025 9.52106 95.7746 9.8763 97.4548 10.5897C98.1561 10.8921 98.8165 11.2415 99.436 11.6378L97.3409 14.1098C96.9084 13.8456 96.435 13.6019 95.9237 13.3788C94.7431 12.865 93.6795 12.6067 92.7357 12.6067C91.634 12.6067 90.6493 12.8503 89.7785 13.3377C88.9077 13.8251 88.4723 14.4445 88.4723 15.1961C88.4723 15.4339 88.5804 15.6688 88.7967 15.8978C89.0129 16.1297 89.3577 16.3529 89.8282 16.5701C90.2986 16.7874 90.7019 16.9635 91.035 17.0956C91.3681 17.2278 91.8444 17.4068 92.461 17.63C93.9659 18.1966 95.0909 18.6487 95.836 18.9863C96.5811 19.324 97.3672 19.7732 98.2 20.3427C99.0299 20.9094 99.6114 21.5464 99.9445 22.2511C100.278 22.9557 100.444 23.7924 100.444 24.7524C100.444 26.1235 99.9795 27.3037 99.0532 28.2931C98.1269 29.2825 97.0925 29.9812 95.9558 30.3893C94.8162 30.7974 93.7058 31.0029 92.6188 31.0029C90.9678 31.0029 89.0947 30.4627 86.9937 29.3794C86.082 28.8891 85.22 28.3489 84.4194 27.7558Z" fill="white"/>
<path d="M112.927 27.8938C110.914 25.824 109.909 23.2786 109.909 20.2576C109.909 17.2366 110.92 14.6912 112.939 12.6214C114.958 10.5516 117.55 9.5152 120.709 9.5152C123.838 9.5152 126.419 10.5574 128.455 12.6419C130.492 14.7264 131.509 17.2659 131.509 20.2576C131.509 23.2522 130.492 25.7917 128.455 27.8733C126.419 29.9578 123.838 31 120.709 31C117.535 31 114.941 29.9636 112.927 27.8938ZM115.35 14.8086C114.006 16.2795 113.333 18.0968 113.333 20.2576C113.333 22.4213 114.006 24.2387 115.35 25.7066C116.694 27.1745 118.479 27.9114 120.709 27.9114C122.912 27.9114 124.692 27.1775 126.048 25.7066C127.403 24.2357 128.081 22.4184 128.081 20.2576C128.081 18.0939 127.403 16.2795 126.048 14.8086C124.692 13.3377 122.912 12.6037 120.709 12.6037C118.479 12.6008 116.694 13.3377 115.35 14.8086Z" fill="white"/>
<path d="M141.634 30.3864V0H145.059V18.0234L152.542 10.1288H157.15L150.181 17.4274L159.003 30.3864H154.81L147.8 19.9024L145.062 22.7707V30.3864H141.634Z" fill="white"/>
</g>
<defs>
<clipPath id="clip0_12_91">
<rect width="159" height="31" fill="white"/>
</clipPath>
</defs>
</svg>
