<svg width="39" height="55" viewBox="0 0 39 55" fill="none" xmlns="http://www.w3.org/2000/svg">
<path fill-rule="evenodd" clip-rule="evenodd" d="M25.2037 2.97001L19.5 0L13.7963 2.97001L7.44663 3.93938L4.56914 9.7144L0 14.2519L1.04574 20.6251L0 26.9982L4.56914 31.5357L7.44663 37.3107L13.7963 38.2801L19.5 41.2501L25.2037 38.2801L31.5534 37.3107L34.4309 31.5357L39 26.9982L37.9543 20.6251L39 14.2519L34.4309 9.7144L31.5534 3.93938L25.2037 2.97001ZM29.291 7.07095L24.1306 6.28377L19.5 3.87063L14.8693 6.28377L9.70899 7.07095L7.37145 11.7632L3.66009 15.4482L4.51104 20.6251L3.65668 25.8019L7.37145 29.4869L9.70899 34.1791L14.8693 34.9663L19.5 37.3795L24.1341 34.9663L29.291 34.1791L31.6285 29.4869L35.3399 25.8019L34.4924 20.6251L35.3399 15.4482L31.6285 11.7632L29.291 7.07095Z" fill="white"/>
<path d="M5.83032 40.5418V55L19.5001 51.5625L33.17 55V40.5418L26.2735 41.5937L19.5001 45.1206L12.7267 41.5937L5.83032 40.5418Z" fill="white"/>
</svg>
