<svg width="193" height="230" viewBox="0 0 193 230" fill="none" xmlns="http://www.w3.org/2000/svg">
<path d="M52.7771 75.7782L52.7772 75.7784C56.9077 85.0107 59.5951 94.4904 61.8961 104.009C62.705 107.356 63.4682 110.717 64.2306 114.074C65.6289 120.233 67.0245 126.379 68.6939 132.397C73.8739 151.07 81.7748 168.863 101.009 183.674L101.039 183.699L101.16 183.796C101.266 183.882 101.423 184.008 101.629 184.173C102.042 184.503 102.65 184.986 103.437 185.602C105.01 186.832 107.295 188.59 110.149 190.705C115.856 194.934 123.84 200.593 132.946 206.311C142.049 212.027 152.29 217.812 162.511 222.285C168.327 224.831 174.157 226.962 179.783 228.41H7.39C3.86317 228.41 1 225.549 1 222.01V5.1337C7.90726 21.0504 17.3855 31.8909 26.6457 41.7267C27.6816 42.8271 28.7137 43.9139 29.7385 44.993C38.7843 54.5183 47.2618 63.4452 52.7771 75.7782Z" stroke="#21D19F" stroke-width="2"/>
</svg>
