<svg width="193" height="230" viewBox="0 0 193 230" fill="none" xmlns="http://www.w3.org/2000/svg">
<path d="M139.353 153.632L139.353 153.632C135.222 144.399 132.535 134.92 130.234 125.401C129.425 122.054 128.662 118.693 127.899 115.336C126.501 109.177 125.106 103.031 123.436 97.0127C118.256 78.3396 110.355 60.5469 91.1209 45.736L91.0906 45.7114L90.9704 45.614C90.8644 45.5283 90.7072 45.4017 90.5009 45.2367C90.0884 44.9068 89.4799 44.4236 88.6933 43.8084C87.1201 42.5782 84.8345 40.82 81.9807 38.7052C76.274 34.4761 68.2904 28.8172 59.1843 23.0994C50.0805 17.3831 39.8395 11.5982 29.6194 7.1247C23.8032 4.57885 17.9727 2.44828 12.3474 1L184.74 1.00002C188.267 1.00002 191.13 3.86143 191.13 7.40003L191.13 224.276C184.223 208.36 174.744 197.519 165.484 187.683C164.448 186.583 163.416 185.496 162.391 184.417C153.346 174.892 144.868 165.965 139.353 153.632Z" stroke="#7293A0" stroke-width="2"/>
</svg>
