<svg width="193" height="230" viewBox="0 0 193 230" fill="none" xmlns="http://www.w3.org/2000/svg">
<path d="M52.777 75.7782L52.7771 75.7784C56.9076 85.0107 59.595 94.4904 61.896 104.009C62.7049 107.356 63.4681 110.717 64.2305 114.074C65.6288 120.233 67.0244 126.379 68.6938 132.397C73.8738 151.07 81.7747 168.863 101.009 183.674L101.039 183.699L101.16 183.796C101.265 183.882 101.423 184.008 101.629 184.173C102.041 184.503 102.65 184.986 103.437 185.602C105.01 186.832 107.295 188.59 110.149 190.705C115.856 194.934 123.839 200.593 132.946 206.311C142.049 212.027 152.29 217.812 162.51 222.285C168.327 224.831 174.157 226.962 179.782 228.41L7.38988 228.41C3.86304 228.41 0.999878 225.549 0.999879 222.01L0.999913 5.13368C7.90717 21.0504 17.3854 31.8909 26.6456 41.7267C27.6815 42.827 28.7136 43.9138 29.7384 44.993C38.7842 54.5183 47.2617 63.4452 52.777 75.7782Z" stroke="#7293A0" stroke-width="2"/>
</svg>
